# File created by Blade
# Date/Time:  Tue Apr 07 20:41:02 2015
# Frame Rate: 120.000 fps
#------------------------------------------------------
:FULLY-SPECIFIED
:DEGREES
1536
root 4.953737 34.233273 -4.417943 17.725011 -13.121356 -32.839413
Spine -2.981258 8.518354 9.481043
Head -3.081201 -2.378469 18.443583
LeftShoulder -19.366161 35.379699 27.192308
LeftArm 55.914149 -57.790322 -63.595920
LeftForeArm 7.565161 -0.000000 0.499982
LeftHand 10.616341 -0.000000 10.458498
LeftHandThumb1 -26.253704 0.000000 33.147579
RightShoulder -3.094213 14.279635 -23.634671
RightArm 4.983135 49.086019 50.230231
RightForeArm 41.858565 -0.000000 18.176185
RightHand 10.014201 -0.000000 -10.560948
RightHandThumb1 -24.326973 -0.000000 -32.862282
LeftUpLeg -14.243173 7.871870 29.061672
LeftLeg 13.679041 -0.000000 -0.000000
LeftFoot -13.961353 5.529128 -26.402932
LeftToeBase 4.661111 -0.000000 -0.000000
RightUpLeg -29.102171 -17.686355 -5.752618
RightLeg 11.510362 -0.000000 -0.000000
RightFoot 31.935105 -20.241809 12.239967
RightToeBase 34.116992 -0.000000 -0.000000
1537
root 4.892103 34.231844 -4.387907 17.573425 -12.708663 -32.675510
Spine -3.045594 8.187949 9.359197
Head -2.977334 -2.506285 18.394540
LeftShoulder -19.361535 35.446929 27.047456
LeftArm 55.945716 -57.501185 -63.631804
LeftForeArm 7.621096 -0.000000 0.588092
LeftHand 10.723447 -0.000000 10.381999
LeftHandThumb1 -26.253704 0.000000 33.147579
RightShoulder -3.243405 14.224457 -23.732231
RightArm 4.329975 49.206792 49.783660
RightForeArm 41.809854 -0.000000 18.008208
RightHand 9.944681 -0.000000 -10.316419
RightHandThumb1 -24.326973 -0.000000 -32.862282
LeftUpLeg -14.229755 7.287688 29.029425
LeftLeg 13.460791 -0.000000 -0.000000
LeftFoot -13.821068 6.212967 -25.542442
LeftToeBase 4.096968 -0.000000 -0.000000
RightUpLeg -28.690217 -17.293916 -5.156117
RightLeg 11.330226 -0.000000 -0.000000
RightFoot 31.444860 -20.304754 12.830267
RightToeBase 34.486551 -0.000000 -0.000000
1538
root 4.830768 34.229916 -4.355272 17.400240 -12.322747 -32.504442
Spine -3.083139 7.889627 9.237193
Head -2.867173 -2.656841 18.334793
LeftShoulder -19.357416 35.530551 26.912220
LeftArm 55.984897 -57.189117 -63.639756
LeftForeArm 7.721670 -0.000000 0.659987
LeftHand 10.710108 -0.000000 10.193021
LeftHandThumb1 -26.253704 0.000000 33.147579
RightShoulder -3.380751 14.143520 -23.821470
RightArm 3.723948 49.340507 49.356366
RightForeArm 41.763609 -0.000000 17.839350
RightHand 9.919083 -0.000000 -10.361571
RightHandThumb1 -24.326973 -0.000000 -32.862282
LeftUpLeg -14.176669 6.752951 28.987617
LeftLeg 13.232355 -0.000000 -0.000000
LeftFoot -13.537340 6.924947 -24.445158
LeftToeBase 3.016621 -0.000000 -0.000000
RightUpLeg -28.323761 -17.035377 -4.477237
RightLeg 11.181167 -0.000000 -0.000000
RightFoot 31.011559 -20.309039 13.230221
RightToeBase 34.512472 -0.000000 -0.000000
1539
root 4.773123 34.227080 -4.324348 17.244196 -11.941863 -32.317788
Spine -3.133945 7.628976 9.110533
Head -2.769493 -2.828143 18.272978
LeftShoulder -19.311850 35.590561 26.819143
LeftArm 55.931461 -56.828126 -63.529452
LeftForeArm 7.749243 -0.000000 0.683709
LeftHand 10.688773 -0.000000 10.020630
LeftHandThumb1 -26.253704 0.000000 33.147579
RightShoulder -3.523373 13.985761 -23.918172
RightArm 3.195905 49.560366 49.004058
RightForeArm 41.553793 0.000000 17.702581
RightHand 9.946076 0.000000 -10.271996
RightHandThumb1 -24.326973 -0.000000 -32.862282
LeftUpLeg -14.131109 6.119670 28.933493
LeftLeg 12.967752 -0.000000 -0.000000
LeftFoot -13.181082 7.799983 -23.161515
LeftToeBase 1.668779 -0.000000 -0.000000
RightUpLeg -27.972512 -16.715238 -3.834677
RightLeg 11.034580 -0.000000 -0.000000
RightFoot 30.490094 -20.239563 13.649914
RightToeBase 34.586173 -0.000000 -0.000000
1540
root 4.717929 34.223812 -4.295208 17.096387 -11.563570 -32.125033
Spine -3.181463 7.326480 8.999357
Head -2.640913 -2.954969 18.175657
LeftShoulder -19.279840 35.655891 26.725733
LeftArm 55.900717 -56.531117 -63.510745
LeftForeArm 7.839684 0.000000 0.743722
LeftHand 10.677334 -0.000000 9.818229
LeftHandThumb1 -26.253704 0.000000 33.147579
RightShoulder -3.653052 13.877654 -23.995551
RightArm 2.744705 49.605337 48.655156
RightForeArm 41.172189 -0.000000 17.543649
RightHand 9.945940 -0.000000 -10.293346
RightHandThumb1 -24.326973 -0.000000 -32.862282
LeftUpLeg -14.101101 5.436348 28.868543
LeftLeg 12.701143 -0.000000 -0.000000
LeftFoot -12.787774 8.760498 -21.748227
LeftToeBase 0.587111 -0.000000 -0.000000
RightUpLeg -27.636149 -16.427249 -3.178167
RightLeg 10.831584 -0.000000 -0.000000
RightFoot 30.051605 -20.116075 13.992080
RightToeBase 34.708475 -0.000000 -0.000000
